<svg width="122" height="148" fill="none" xmlns="http://www.w3.org/2000/svg"><path fill-rule="evenodd" clip-rule="evenodd" d="M21.394 144.185a32.93 32.93 0 01-20.285-2.043l-.742 2.769a29.655 29.655 0 0010.313 2.764 32.47 32.47 0 0021.188-4.5 33.549 33.549 0 0011.596-12.639 32.295 32.295 0 01-2.92-1.023 29.428 29.428 0 01-2.244 3.937 30.338 30.338 0 01-16.906 10.735zm20.368-17.667a29.433 29.433 0 01-1.218 2.995 32.513 32.513 0 01-5.52-2.877 25.866 25.866 0 01-12.502-15.222c-.708-3.951.38-8.01 2.968-11.078a11.482 11.482 0 017.144-4.446 14.391 14.391 0 0112.4 9.259 26.163 26.163 0 01.253 21.269c-.06.164-.122.329-.184.492.72.041 1.443.054 2.167.039a36.193 36.193 0 0018.462-2.261 63.84 63.84 0 0028.29-31.006 54.33 54.33 0 005.14-24.165 31.612 31.612 0 01-7.985 3.05 23.464 23.464 0 01-19.437-5.208 18.848 18.848 0 01-7.29-17.219 18 18 0 0110.983-14.017 18.52 18.52 0 0120.23 5.42 45.036 45.036 0 018.007 21.509 36.384 36.384 0 008.917-14.854 49.062 49.062 0 00-1.169-38.475 30.364 30.364 0 00-2.601-5.9l-5.152 11.031 3.605-13.451.318-1.187c.504.545.994 1.1 1.469 1.666l.593.159-.167.357a44.213 44.213 0 019.246 35.573 49.85 49.85 0 01-9.534 22.887 31.532 31.532 0 01-5.32 5.501 44.898 44.898 0 01-2.706 16.518 70.732 70.732 0 01-26.655 40.772 45.976 45.976 0 01-20.053 8.195 32.502 32.502 0 01-10.997-1.308 33.478 33.478 0 001.639-3.626 28.08 28.08 0 01-3.341-.392zm67.721-124.12l-.666 1.425a30.578 30.578 0 00-1.547-2.42l1.787.479c.143.17.285.343.426.516zM99.053 66.96c.056.852.093 1.705.11 2.557a31.57 31.57 0 004.712-3.158 45.078 45.078 0 00-.205-3.307 36.52 36.52 0 01-3.02 2.724 24.87 24.87 0 01-1.598 1.184zm0 0a54.397 54.397 0 00-2.023-11.48 22.594 22.594 0 00-13.216-14.142c-5.55-1.905-11.67.358-14.63 5.408a14.309 14.309 0 00-.245 15.199 19.333 19.333 0 0014.092 9.288 25.065 25.065 0 0016.02-4.272zm-57.291 59.558a29.418 29.418 0 001.52-11.662 15.158 15.158 0 00-5.255-13.705 9.464 9.464 0 00-7.351-.363 9.415 9.415 0 00-5.374 5.01 13.501 13.501 0 001.635 9.767 22.975 22.975 0 005.26 7.345 27.992 27.992 0 009.565 3.608zM117.939 3.444a28.73 28.73 0 003.961 1.061l-.792-.212-3.169-.849zm0 0l-.396-.106a33.68 33.68 0 01-3.564-.955 21.322 21.322 0 00-3.564-.955 18.447 18.447 0 007.524 2.016z" fill="#E7C4B2"/></svg>