<svg width="51" height="211" fill="none" xmlns="http://www.w3.org/2000/svg"><path fill-rule="evenodd" clip-rule="evenodd" d="M42.238 189.035a40.854 40.854 0 018.76 20.968h-.004c.128 1.359-1.893 1.299-2.06 0a33.947 33.947 0 00-.812-4.171 39.696 39.696 0 00-8.093-15.267 17.97 17.97 0 002.209-1.53zm-1.214-32.46c4.842 4.605 7.716 10.979 7.953 17.749.156 5.754-2.381 11.184-6.74 14.711a40.512 40.512 0 00-1.999-2.298c.309-.223.611-.455.908-.696 4.276-4.261 5.868-10.573 4.136-16.39a25.684 25.684 0 00-6.94-11.254 20.711 20.711 0 002.682-1.822zm-1.299-31.937a31.09 31.09 0 012.084 2.098c5.546 5.75 7.587 14.091 5.336 21.801a20.903 20.903 0 01-6.12 8.038 25.064 25.064 0 00-1.228-1.094 36.89 36.89 0 00-1.159-1.01 16.44 16.44 0 006.247-9.759c.515-6.905-2.376-13.621-7.721-17.935l-.07-.059a20.545 20.545 0 002.631-2.08zm.52-28.494a32.712 32.712 0 013.327 4.518 20.6 20.6 0 011.638 15.574 20.944 20.944 0 01-5.485 8.402 31.277 31.277 0 00-2.596-2.13c.33-.256.656-.522.976-.796a15.555 15.555 0 004.706-11.772 20.119 20.119 0 00-5.071-11.981 23.307 23.307 0 002.505-1.815zm.646-28.774a27 27 0 015.592 10.096 17.43 17.43 0 01-2.752 15.086 23.442 23.442 0 01-3.486 3.592 32.475 32.475 0 00-2.202-2.274 15.093 15.093 0 005.83-9.985 24.141 24.141 0 00-5.566-14.53c.218-.124.433-.252.646-.383.711-.46 1.36-.998 1.938-1.602zm-3.261-56.1l.03.207a4763.1 4763.1 0 015.902 42.236c.538 2.84.563 5.754.073 8.603a10.964 10.964 0 01-2.744 5.054 26.692 26.692 0 00-2.272-2.287 8.91 8.91 0 00.983-1.32 9.026 9.026 0 001.047-6.882c-.332-4.087-.97-8.174-1.605-12.248-.284-1.824-.568-3.646-.824-5.464a12239.075 12239.075 0 01-4.624-33.495l.046-.063a52.107 52.107 0 01-.07-.112l.024.175c-.66.907-1.318 1.816-1.975 2.725a528.57 528.57 0 01-3.914 5.362 1.737 1.737 0 01-2.34.62 1.758 1.758 0 01-.613-2.37 515.538 515.538 0 014.011-5.305 606.298 606.298 0 003.455-4.56 1.297 1.297 0 01.337-.45c.235-.315.469-.63.702-.946.711-.962 2.703-1.163 2.924.387l.51 3.57a68.486 68.486 0 013.34 4.677l2.936 4.015a33.07 33.07 0 012.738 3.865 1.61 1.61 0 01-.416 2.015 1.527 1.527 0 01-2.012-.102 34.47 34.47 0 01-2.88-3.965l-2.715-3.873-.054-.069zm-2.185-8.115l.573-.769-1.375-.182c.27.315.538.632.802.951zm-1.237-1.009l.317.042c.141.325.272.653.403.98l.178.445c-.354.48-.706.96-1.058 1.441a30.598 30.598 0 00-.614-.564l-.237-1.739 1.01-.605zm1.882 64.885a23.86 23.86 0 012.217 2.325 23.344 23.344 0 01-7.22 2.67 44.55 44.55 0 01-18.996.238 29.857 29.857 0 01-8.499-2.686c-2.45-1.161-3.795-3.874-3.25-6.56a8.82 8.82 0 014.673-5.216 18.761 18.761 0 017.714-1.787c8.782-.47 17.435 2.301 24.357 7.8.527.405 1.039.828 1.533 1.268-.72.8-1.578 1.46-2.529 1.948zm0 0a23.547 23.547 0 00-8.707-5.062 33.011 33.011 0 00-14.657-2.425c-2.217.03-4.398.57-6.378 1.582a3.993 3.993 0 00-2.686 3.82 8.323 8.323 0 005.975 3.374 39.043 39.043 0 007.925 1.468 39.671 39.671 0 0016.434-2.001 8.73 8.73 0 002.094-.756zm-.942 28.658a35 35 0 012.248 1.896c.116.123.231.248.344.374a23.098 23.098 0 01-6.82 2.881 43.55 43.55 0 01-19.572-.524c-1.784-.376-3.56-.784-5.328-1.227a11.144 11.144 0 01-3.493-1.335C.275 96.224-.603 93.297.43 90.755c3.22-4.905 9.19-7.151 14.787-5.562 8.548-.244 16.712 2.95 22.827 8.677-.29.22-.59.43-.898.628-.648.43-1.315.828-1.997 1.19zm0 0c-7.207-5.574-16.325-8.086-25.395-6.912a6.684 6.684 0 00-5.79 2.635 3.044 3.044 0 00-.308 2.612 3.353 3.353 0 002.19 1.464 58.928 58.928 0 0017.388 3.022 24.044 24.044 0 0011.915-2.821zm-1.045 28.832a29.194 29.194 0 012.991 2.197 20.37 20.37 0 01-1.653.993c-11.092 4.935-23.925 3.611-33.809-3.487a1.795 1.795 0 01-.846-1.528c0-.623.32-1.202.846-1.527a31.022 31.022 0 0122.443-4.194 30.745 30.745 0 0113.054 5.533 24.966 24.966 0 01-3.026 2.013zm-28.018-1.758a28.85 28.85 0 0128.018 1.758 24.761 24.761 0 01-23.611.414 52.009 52.009 0 01-4.407-2.172zm0 0c-.913.435-1.81.922-2.687 1.461v-3.055a52.27 52.27 0 002.687 1.594zm29.608 33.449c.935.67 1.82 1.4 2.65 2.185a20.483 20.483 0 01-7.296 2.491 46.636 46.636 0 01-25.676-4.933 1.75 1.75 0 01-1.178-2.102 11.375 11.375 0 012.16-3.693 17.04 17.04 0 0115.738-3.692 37.626 37.626 0 0116.547 8.003 16.081 16.081 0 01-2.945 1.741zm-27.51-2.581c2.406-3.252 6.44-4.907 10.462-4.186a31.172 31.172 0 0115.33 5.639c.59.354 1.163.73 1.718 1.128-1.1.502-2.267.884-3.484 1.129a39.51 39.51 0 01-24.025-3.71zm0 0c-.264.358-.509.734-.732 1.13l-.777-1.929a39.65 39.65 0 001.51.799zm29.663 34.581c.76.754 1.487 1.539 2.183 2.353l-.053.03a27.21 27.21 0 01-17.562 2.198 47.54 47.54 0 01-9.213-2.43 20.904 20.904 0 01-8.407-4.705c-2.26-2.189-2.513-5.76-.582-8.252a10.795 10.795 0 017.963-3.21 35.128 35.128 0 0118.22 4.883 40.068 40.068 0 019.843 7.658 19.398 19.398 0 01-2.392 1.475zm0 0a39.023 39.023 0 00-10.979-7.67 29.875 29.875 0 00-15.81-3.209c-2.313-.089-4.41 1.364-5.169 3.579.619 2.69 2.695 4.79 5.351 5.411a42.807 42.807 0 0015.921 3.985 19.241 19.241 0 0010.686-2.096z" fill="#E7C4B2"/></svg>