<svg width="152" height="48" viewBox="0 0 152 48" fill="none" xmlns="http://www.w3.org/2000/svg">
<g clip-path="url(#clip0_0_4)">
<path d="M65.432 32L62.84 14.3H66.668L68.552 31.196L68.012 31.172L71.012 14.3H75.656L78.644 31.172L78.104 31.196L79.988 14.3H83.816L81.224 32H75.512L73.148 16.88H73.532L71.144 32H65.432ZM86.8175 26.744V24.284H95.2655L94.9055 24.908C94.9055 24.844 94.9055 24.784 94.9055 24.728C94.9055 24.664 94.9055 24.604 94.9055 24.548C94.9055 24.092 94.7975 23.656 94.5815 23.24C94.3655 22.816 94.0295 22.472 93.5735 22.208C93.1255 21.936 92.5495 21.8 91.8455 21.8C91.1415 21.8 90.5335 21.952 90.0215 22.256C89.5175 22.552 89.1295 22.98 88.8575 23.54C88.5935 24.1 88.4615 24.776 88.4615 25.568C88.4615 26.384 88.5895 27.084 88.8455 27.668C89.1095 28.244 89.4975 28.688 90.0095 29C90.5295 29.312 91.1735 29.468 91.9415 29.468C92.4375 29.468 92.8655 29.424 93.2255 29.336C93.5855 29.24 93.8775 29.12 94.1015 28.976C94.3335 28.832 94.5095 28.672 94.6295 28.496C94.7495 28.32 94.8215 28.148 94.8455 27.98H98.5175C98.4695 28.516 98.2855 29.044 97.9655 29.564C97.6455 30.076 97.2015 30.54 96.6335 30.956C96.0655 31.364 95.3735 31.688 94.5575 31.928C93.7495 32.168 92.8255 32.288 91.7855 32.288C90.3775 32.288 89.1495 32.008 88.1015 31.448C87.0535 30.88 86.2415 30.1 85.6655 29.108C85.0895 28.108 84.8015 26.956 84.8015 25.652C84.8015 24.332 85.0935 23.176 85.6775 22.184C86.2695 21.184 87.0895 20.408 88.1375 19.856C89.1935 19.296 90.4135 19.016 91.7975 19.016C93.2135 19.016 94.4375 19.3 95.4695 19.868C96.5015 20.428 97.2975 21.216 97.8575 22.232C98.4175 23.24 98.6975 24.416 98.6975 25.76C98.6975 25.96 98.6935 26.152 98.6855 26.336C98.6775 26.52 98.6655 26.656 98.6495 26.744H86.8175ZM108.69 32.276C107.682 32.276 106.758 32.008 105.918 31.472C105.078 30.936 104.406 30.212 103.902 29.3C103.398 28.38 103.146 27.348 103.146 26.204C103.146 26.172 103.146 26.144 103.146 26.12C103.146 26.088 103.146 26.052 103.146 26.012L104.754 25.976C104.754 26 104.754 26.024 104.754 26.048C104.754 26.072 104.754 26.096 104.754 26.12C104.754 26.712 104.898 27.232 105.186 27.68C105.474 28.12 105.846 28.46 106.302 28.7C106.758 28.94 107.234 29.06 107.73 29.06C108.546 29.06 109.254 28.78 109.854 28.22C110.462 27.652 110.766 26.768 110.766 25.568C110.766 24.368 110.466 23.496 109.866 22.952C109.266 22.4 108.554 22.124 107.73 22.124C107.234 22.124 106.758 22.244 106.302 22.484C105.846 22.716 105.474 23.048 105.186 23.48C104.898 23.912 104.754 24.428 104.754 25.028L103.146 24.932C103.146 23.78 103.398 22.764 103.902 21.884C104.406 20.996 105.078 20.3 105.918 19.796C106.758 19.284 107.682 19.028 108.69 19.028C109.722 19.028 110.686 19.28 111.582 19.784C112.478 20.288 113.202 21.028 113.754 22.004C114.314 22.98 114.594 24.168 114.594 25.568C114.594 27.032 114.322 28.264 113.778 29.264C113.234 30.256 112.514 31.008 111.618 31.52C110.722 32.024 109.746 32.276 108.69 32.276ZM101.022 32V13.244H104.754V32H101.022ZM116.121 32L120.537 14.276H126.429L130.821 32H127.005L123.477 16.544H123.501L119.937 32H116.121ZM119.289 27.896V24.992H127.689V27.896H119.289ZM132.886 32V14.3H136.558V32H132.886Z" fill="white"/>
<path d="M4.11357 17.5385L24 3.09017L43.8864 17.5385L36.2905 40.9164H11.7095L4.11357 17.5385Z" stroke="#EF6D58" stroke-width="5"/>
<path d="M23.5 14L32.535 20.5643L29.084 31.1857H17.916L14.465 20.5643L23.5 14Z" fill="#EF6D58"/>
</g>
<defs>
<clipPath id="clip0_0_4">
<rect width="152" height="48" fill="white"/>
</clipPath>
</defs>
</svg>
